<svg xmlns="http://www.w3.org/2000/svg" viewBox="0 0 1060.18 1355.07"><defs><style>.cls-1{fill:#0d447a;}.cls-2{font-size:113.43px;}.cls-2,.cls-4{fill:#fff;font-family:Impact;}.cls-3,.cls-5{fill:#5dba47;stroke:#fff;stroke-miterlimit:10;}.cls-3{stroke-width:2px;}.cls-4{font-size:113.43px;}.cls-5{stroke-width:4px;}</style></defs><g id="Layer_2" data-name="Layer 2"><g id="Layer_1-2" data-name="Layer 1"><path class="cls-1" d="M532,155.21c-276.14,0-500,223.86-500,500s223.86,500,500,500,500-223.86,500-500S808.1,155.21,532,155.21Zm0,830c-182.22,0-330-147.73-330-329.95s147.73-330,330-330S861.91,473,861.91,655.21,714.18,985.16,532,985.16Z"/><text class="cls-2" transform="matrix(0.27, -0.96, 0.96, 0.27, 171.51, 596.44)">MED SCHOOL SIMPLIFIED</text><path class="cls-3" d="M77.12,650h29.56a1.9,1.9,0,0,0,1.9-1.9V618.49a1.9,1.9,0,0,1,1.89-1.9h18.88a1.9,1.9,0,0,1,1.9,1.9v29.65a1.9,1.9,0,0,0,1.9,1.9h29.74a1.9,1.9,0,0,1,1.9,1.9v18.87a1.9,1.9,0,0,1-1.9,1.9H133.15a1.9,1.9,0,0,0-1.9,1.9v29.46a1.9,1.9,0,0,1-1.9,1.9H110.47a1.9,1.9,0,0,1-1.89-1.9V674.61a1.9,1.9,0,0,0-1.9-1.9H77.12a1.9,1.9,0,0,1-1.9-1.9V651.94A1.9,1.9,0,0,1,77.12,650Z"/><path class="cls-3" d="M902,650h29.56a1.9,1.9,0,0,0,1.9-1.9V618.49a1.9,1.9,0,0,1,1.9-1.9h18.87a1.9,1.9,0,0,1,1.9,1.9v29.65A1.9,1.9,0,0,0,958,650h29.74a1.9,1.9,0,0,1,1.9,1.9v18.87a1.9,1.9,0,0,1-1.9,1.9H958a1.9,1.9,0,0,0-1.9,1.9v29.46a1.9,1.9,0,0,1-1.9,1.9H935.35a1.9,1.9,0,0,1-1.9-1.9V674.61a1.9,1.9,0,0,0-1.9-1.9H902a1.9,1.9,0,0,1-1.9-1.9V651.94A1.9,1.9,0,0,1,902,650Z"/><text class="cls-4" transform="translate(90.07 783.28) rotate(68.85)">MED SCHOOL SIMPLIFIED</text><path class="cls-5" d="M787.7,569.74V740.09H668.8c-.53-10.59-.94-18.68-.94-18.68a11.18,11.18,0,0,0-.11-1.15c-2-13.85-6.47-33.74-21.17-46.34-9.72-8.36-21-13.35-30.86-17.36a12.13,12.13,0,0,0-4.57-.91.39.39,0,0,0-.15,0,11.88,11.88,0,0,0-3.89-2.57c-2.45-1-5.09-2.09-7.71-3.29l-27.3-12.32a129.19,129.19,0,0,1-.46-15.89c10.73-11.45,18.35-27.31,22.66-47.25a12.08,12.08,0,0,0,.25-1.89l.32-5.76c4.87-5.1,7.39-12,8.93-16.26l.22-.61c3.61-9.88,5.2-19.23,4.71-27.73-.4-7.68-3.15-12.42-6.1-15.3l3.77-13.36a9.93,9.93,0,0,0,.37-1.88c5.86-49.8-41.12-70.9-66.93-75.13a54.36,54.36,0,0,0-8-.6c-22.42,0-37.46,14.2-44.52,22.84a.65.65,0,0,0-.19,0c-12.38,3-22.1,10-28.11,20.4-9.18,15.82-7.92,35.67-5.93,47.65-3,3-5.94,8-5.9,16.25,0,8.61,2.13,17.86,6.31,27.49l.25.61c1.69,3.91,4.21,9.73,8.47,14.33l.53,5.69c0,.17,0,.35,0,.52.15,1,3.42,24,19.38,43.54a141.07,141.07,0,0,1-1.43,18.43c-8.39,3.22-16.8,6.46-25.17,9.7l-2.74,1.06c-2.41.92-5.05,1.86-8.51,3a12,12,0,0,0-4.9,3.21,13,13,0,0,0-2-.17,12.36,12.36,0,0,0-4.05.69c-9.18,3.25-19.82,7.53-29.1,14.65-11.55,8.88-19.3,23.63-23.7,45.08a10.13,10.13,0,0,0-.18,1.23l-2.82,28H268.24V569.74H442.79V395.19H613.15V569.74Z"/><path class="cls-5" d="M602.94,840.44a11.64,11.64,0,0,1-2.08,1.06,201.4,201.4,0,0,1-143.67,1.29l-7.39-2.94c-2.36-1-4.72-2-7-3.11v77.91H613.15V833.92Z"/><path class="cls-1" d="M708.17,561.28h40.88a241.87,241.87,0,0,0-127.44-127v40.8A205,205,0,0,1,708.17,561.28Z"/><path class="cls-1" d="M621.61,836.4v40.8A241.85,241.85,0,0,0,749.76,748.55h-40.7A205,205,0,0,1,621.61,836.4Z"/><path class="cls-1" d="M346.89,748.55H306.18A241.85,241.85,0,0,0,434.33,877.2V836.4A204.92,204.92,0,0,1,346.89,748.55Z"/><path class="cls-1" d="M434.33,475.11v-40.8a241.82,241.82,0,0,0-127.43,127h40.87A205,205,0,0,1,434.33,475.11Z"/><path class="cls-1" d="M454.5,828.7c-3.06-1.28-6.06-2.63-9-4.07l-57.83-43.16L385.7,780l.07-.66,6.65-66c2.79-13.58,7.84-29.18,19.24-37.94,7.68-5.88,16.64-9.6,25.77-12.83-.33,15.34,5,35.59,8.25,46.55a45.82,45.82,0,0,0-19.61,14.4c-8.92,12-4.44,29.57-1.17,42.44.48,1.85.93,3.59,1.28,5.24,4.23,18.14,9.71,33.3,16.78,46.37l.25-.15-.21,1.23S448.46,825,454.5,828.7Z"/><path class="cls-1" d="M592.36,514.26a5.56,5.56,0,0,0-4.56.56l7-24.67c6-51.49-56.74-61.76-56.74-61.76-28.93-4.36-45,22.85-45,22.85l-3.13-.78c-38.75,9.3-23,63.2-23,63.2l.18.69a5.58,5.58,0,0,0-4,0c-3.1,1.31-3.84,5.32-3.82,8.67,0,7.72,2.2,15.52,5.3,22.69,1.77,4.08,4.66,11.2,9.22,13.75l1,10.59s3.14,23,19.57,40.73A61.06,61.06,0,0,0,527,629.24s16.93,1.64,32.74-12.8c9.15-8.35,17.9-22.08,22.78-44.64l.61-11.27c5.15-2.16,7.92-10.33,9.57-14.84,2.69-7.37,4.43-15.29,4-23C596.49,519.36,595.53,515.4,592.36,514.26Z"/><path class="cls-1" d="M659.2,789.64,655.8,722c-2-13.73-6.18-29.58-17.09-38.94-7.55-6.5-16.62-10.81-25.85-14.64,1.48,12.76,1,33.46-8.55,62.77l-.07.21-.15.45a16.48,16.48,0,0,1,7.31,13.43,16.92,16.92,0,0,1-16.46,17.4,16.48,16.48,0,0,1-3.81-.33A16.94,16.94,0,0,1,594,728.82c.32,0,.63,0,.91,0,10.61-32.53,9.64-53.78,7.65-64.57-2.73-1.12-5.42-2.25-8.09-3.46-10.95-4.93-21.93-9.9-32.89-14.83-2.08-5.68-2.2-17.83-1.9-27.6,0-.67,0-1.31.07-1.94C543.9,630.88,527,629.24,527,629.24l-1.59-.37A60.89,60.89,0,0,1,496,612.49c-.57-.56-1.12-1.13-1.66-1.72-.1,10.24-.76,25.5-3.54,31.93-11.21,4.29-22.44,8.64-33.65,12.95-2.92,1.13-5.9,2.17-8.9,3.21-1.34,10.86,2.94,31.49,7.74,47.53l1.47-.25c7.12-1.14,15.56-1.81,23.37.23l.23.07.07,0C497.17,711,502.63,731,505.9,742.9c.57,2.11,1.16,4.24,1.71,6.37,1.11,4.23,2.12,8.5,3,12.78a207.16,207.16,0,0,1,3.89,26.35c.69,8.52.74,17.3-1.8,25.58-1,3.44-3,7.78-7,8.44a13.47,13.47,0,0,1-2.77-.25c-3.18-.59-8-2.57-8.75-9.2l10.19-14.38c0-18.15-4.15-36.14-8.73-52.91-2.85-10.37-7.11-26-17.32-28.95a1.2,1.2,0,0,0-.27-.08c-7-1.88-15.57-.67-22.22.55-8.19,1.53-16.75,6.65-21.25,12.67-5.89,7.91-2.15,22.68.59,33.45.5,1.93,1,3.75,1.36,5.47,3.94,16.92,9,31,15.46,43.11l1.66.4,13.9,3.34c5.69,8.19-2.45,14.67-2.45,14.67a6.7,6.7,0,0,1-4.57.82,187.46,187.46,0,0,0,21.35,6.65c.91.23,1.81.47,2.73.67a189.76,189.76,0,0,0,111.8-8.18c20.43-4.39,52.55-31.65,60.79-38.87l.47-.3,1.53-1Z"/></g></g></svg>